<mxfile host="app.diagrams.net" modified="2024-07-12T07:44:58.412Z" agent="Mozilla/5.0 (Windows NT 10.0; Win64; x64) AppleWebKit/537.36 (KHTML, like Gecko) Chrome/109.0.0.0 Safari/537.36" version="24.6.3" etag="0FOGz27cSXU9yYkccsip" type="github">
  <diagram name="第 1 页" id="Cu1COyaI0SZhT9thVV55">
    <mxGraphModel>
      <root>
        <mxCell id="0" />
        <mxCell id="1" parent="0" />
        <mxCell id="2" value="主节点1" style="whiteSpace=wrap;strokeWidth=2;" vertex="1" parent="1">
          <mxGeometry x="61" width="71" height="33" as="geometry" />
        </mxCell>
        <mxCell id="3" value="从节点1" style="whiteSpace=wrap;strokeWidth=2;" vertex="1" parent="1">
          <mxGeometry y="83" width="72" height="33" as="geometry" />
        </mxCell>
        <mxCell id="4" value="从节点2" style="whiteSpace=wrap;strokeWidth=2;" vertex="1" parent="1">
          <mxGeometry x="122" y="83" width="72" height="33" as="geometry" />
        </mxCell>
        <mxCell id="5" value="主节点2" style="whiteSpace=wrap;strokeWidth=2;" vertex="1" parent="1">
          <mxGeometry x="305" width="71" height="33" as="geometry" />
        </mxCell>
        <mxCell id="6" value="从节点3" style="whiteSpace=wrap;strokeWidth=2;" vertex="1" parent="1">
          <mxGeometry x="244" y="83" width="72" height="33" as="geometry" />
        </mxCell>
        <mxCell id="7" value="从节点4" style="whiteSpace=wrap;strokeWidth=2;" vertex="1" parent="1">
          <mxGeometry x="366" y="83" width="72" height="33" as="geometry" />
        </mxCell>
        <mxCell id="8" value="主节点3" style="whiteSpace=wrap;strokeWidth=2;" vertex="1" parent="1">
          <mxGeometry x="549" width="71" height="33" as="geometry" />
        </mxCell>
        <mxCell id="9" value="从节点5" style="whiteSpace=wrap;strokeWidth=2;" vertex="1" parent="1">
          <mxGeometry x="488" y="83" width="72" height="33" as="geometry" />
        </mxCell>
        <mxCell id="10" value="从节点6" style="whiteSpace=wrap;strokeWidth=2;" vertex="1" parent="1">
          <mxGeometry x="610" y="83" width="72" height="33" as="geometry" />
        </mxCell>
        <mxCell id="11" value="16384 个哈希槽" style="whiteSpace=wrap;strokeWidth=2;" vertex="1" parent="1">
          <mxGeometry x="671" width="126" height="33" as="geometry" />
        </mxCell>
        <mxCell id="12" value="" style="curved=1;startArrow=none;endArrow=none;exitX=0.16;exitY=1.01;entryX=0.5;entryY=0.01;" edge="1" parent="1" source="2" target="3">
          <mxGeometry relative="1" as="geometry">
            <Array as="points">
              <mxPoint x="36" y="58" />
            </Array>
          </mxGeometry>
        </mxCell>
        <mxCell id="13" value="" style="curved=1;startArrow=none;endArrow=none;exitX=0.85;exitY=1.01;entryX=0.5;entryY=0.01;" edge="1" parent="1" source="2" target="4">
          <mxGeometry relative="1" as="geometry">
            <Array as="points">
              <mxPoint x="158" y="58" />
            </Array>
          </mxGeometry>
        </mxCell>
        <mxCell id="14" value="" style="curved=1;startArrow=none;endArrow=none;exitX=0.16;exitY=1.01;entryX=0.5;entryY=0.01;" edge="1" parent="1" source="5" target="6">
          <mxGeometry relative="1" as="geometry">
            <Array as="points">
              <mxPoint x="280" y="58" />
            </Array>
          </mxGeometry>
        </mxCell>
        <mxCell id="15" value="" style="curved=1;startArrow=none;endArrow=none;exitX=0.85;exitY=1.01;entryX=0.5;entryY=0.01;" edge="1" parent="1" source="5" target="7">
          <mxGeometry relative="1" as="geometry">
            <Array as="points">
              <mxPoint x="402" y="58" />
            </Array>
          </mxGeometry>
        </mxCell>
        <mxCell id="16" value="" style="curved=1;startArrow=none;endArrow=none;exitX=0.16;exitY=1.01;entryX=0.5;entryY=0.01;" edge="1" parent="1" source="8" target="9">
          <mxGeometry relative="1" as="geometry">
            <Array as="points">
              <mxPoint x="524" y="58" />
            </Array>
          </mxGeometry>
        </mxCell>
        <mxCell id="17" value="" style="curved=1;startArrow=none;endArrow=none;exitX=0.85;exitY=1.01;entryX=0.5;entryY=0.01;" edge="1" parent="1" source="8" target="10">
          <mxGeometry relative="1" as="geometry">
            <Array as="points">
              <mxPoint x="646" y="58" />
            </Array>
          </mxGeometry>
        </mxCell>
      </root>
    </mxGraphModel>
  </diagram>
</mxfile>
